<?xml version="1.0"?>
<svg xmlns="http://www.w3.org/2000/svg" xmlns:xlink="http://www.w3.org/1999/xlink" version="1.1" viewBox="0 0 252 252" width="480px" height="480px"><g transform=""><g fill="none" fill-rule="nonzero" stroke="none" stroke-width="1" stroke-linecap="butt" stroke-linejoin="miter" stroke-miterlimit="10" stroke-dasharray="" stroke-dashoffset="0" font-family="none" font-weight="none" font-size="none" text-anchor="none" style="mix-blend-mode: normal"><path d="M0,252v-252h252v252z" fill="none"/><path d="M0,126c0,-69.58788 56.41212,-126 126,-126c69.58788,0 126,56.41212 126,126c0,69.58788 -56.41212,126 -126,126c-69.58788,0 -126,-56.41212 -126,-126zM126,246.96c66.80436,0 120.96,-54.15564 120.96,-120.96c0,-66.80436 -54.15564,-120.96 -120.96,-120.96c-66.80436,0 -120.96,54.15564 -120.96,120.96c0,66.80436 54.15564,120.96 120.96,120.96z" fill="#2196f3"/><g fill="#2196f3"><path d="M172.96125,100.79993h-29.61v-16.8c0,-8.6688 0.7056,-14.1288 13.1292,-14.1288h15.6912v-26.712c-7.6356,-0.7896 -15.3132,-1.176 -22.9992,-1.1592c-22.7892,0 -39.4212,13.9188 -39.4212,39.4716v19.3284h-25.2v33.6l25.2,-0.0084v75.6084h33.6v-75.6252l25.7544,-0.0084z"/></g><path d="M126,252c-69.58788,0 -126,-56.41212 -126,-126v0c0,-69.58788 56.41212,-126 126,-126v0c69.58788,0 126,56.41212 126,126v0c0,69.58788 -56.41212,126 -126,126z" fill="none"/><path d="M126,246.96c-66.80436,0 -120.96,-54.15564 -120.96,-120.96v0c0,-66.80436 54.15564,-120.96 120.96,-120.96h0c66.80436,0 120.96,54.15564 120.96,120.96v0c0,66.80436 -54.15564,120.96 -120.96,120.96z" fill="none"/><path d="M126,249.48c-68.19612,0 -123.48,-55.28388 -123.48,-123.48v0c0,-68.19612 55.28388,-123.48 123.48,-123.48h0c68.19612,0 123.48,55.28388 123.48,123.48v0c0,68.19612 -55.28388,123.48 -123.48,123.48z" fill="none"/><path d="M126,244.44c-65.41261,0 -118.44,-53.02739 -118.44,-118.44v0c0,-65.41261 53.02739,-118.44 118.44,-118.44v0c65.41261,0 118.44,53.02739 118.44,118.44v0c0,65.41261 -53.02739,118.44 -118.44,118.44z" fill="none"/><path d="M126,248.22c-67.50024,0 -122.22,-54.71976 -122.22,-122.22v0c0,-67.50024 54.71976,-122.22 122.22,-122.22v0c67.50024,0 122.22,54.71976 122.22,122.22v0c0,67.50024 -54.71976,122.22 -122.22,122.22z" fill="none"/><path d="M126,243.18c-64.71673,0 -117.18,-52.46327 -117.18,-117.18v0c0,-64.71673 52.46327,-117.18 117.18,-117.18h0c64.71673,0 117.18,52.46327 117.18,117.18v0c0,64.71673 -52.46327,117.18 -117.18,117.18z" fill="none"/><path d="M126,246.96c-66.80436,0 -120.96,-54.15564 -120.96,-120.96v0c0,-66.80436 54.15564,-120.96 120.96,-120.96h0c66.80436,0 120.96,54.15564 120.96,120.96v0c0,66.80436 -54.15564,120.96 -120.96,120.96z" fill="none"/><path d="M126,241.92c-64.02085,0 -115.92,-51.89915 -115.92,-115.92v0c0,-64.02085 51.89915,-115.92 115.92,-115.92v0c64.02085,0 115.92,51.89915 115.92,115.92v0c0,64.02085 -51.89915,115.92 -115.92,115.92z" fill="none"/><path d="M126,245.7c-66.10848,0 -119.7,-53.59152 -119.7,-119.7v0c0,-66.10848 53.59152,-119.7 119.7,-119.7h0c66.10848,0 119.7,53.59152 119.7,119.7v0c0,66.10848 -53.59152,119.7 -119.7,119.7z" fill="none"/><path d="M126,240.66c-63.32497,0 -114.66,-51.33503 -114.66,-114.66v0c0,-63.32497 51.33503,-114.66 114.66,-114.66v0c63.32497,0 114.66,51.33503 114.66,114.66v0c0,63.32497 -51.33503,114.66 -114.66,114.66z" fill="none"/><path d="M126,243.18c-64.71673,0 -117.18,-52.46327 -117.18,-117.18v0c0,-64.71673 52.46327,-117.18 117.18,-117.18v0c64.71673,0 117.18,52.46327 117.18,117.18v0c0,64.71673 -52.46327,117.18 -117.18,117.18z" fill="none"/><path d="M126,238.14c-61.93321,0 -112.14,-50.20679 -112.14,-112.14v0c0,-61.93321 50.20679,-112.14 112.14,-112.14h0c61.93321,0 112.14,50.20679 112.14,112.14v0c0,61.93321 -50.20679,112.14 -112.14,112.14z" fill="none"/><path d="M126,241.92c-64.02085,0 -115.92,-51.89915 -115.92,-115.92v0c0,-64.02085 51.89915,-115.92 115.92,-115.92h0c64.02085,0 115.92,51.89915 115.92,115.92v0c0,64.02085 -51.89915,115.92 -115.92,115.92z" fill="none"/><path d="M126,236.88c-61.23733,0 -110.88,-49.64267 -110.88,-110.88v0c0,-61.23733 49.64267,-110.88 110.88,-110.88v0c61.23733,0 110.88,49.64267 110.88,110.88v0c0,61.23733 -49.64267,110.88 -110.88,110.88z" fill="none"/><path d="M126,240.66c-63.32497,0 -114.66,-51.33503 -114.66,-114.66v0c0,-63.32497 51.33503,-114.66 114.66,-114.66v0c63.32497,0 114.66,51.33503 114.66,114.66v0c0,63.32497 -51.33503,114.66 -114.66,114.66z" fill="none"/><path d="M126,235.62c-60.54145,0 -109.62,-49.07855 -109.62,-109.62v0c0,-60.54145 49.07855,-109.62 109.62,-109.62h0c60.54145,0 109.62,49.07855 109.62,109.62v0c0,60.54145 -49.07855,109.62 -109.62,109.62z" fill="none"/><path d="M126,239.4c-62.62909,0 -113.4,-50.77091 -113.4,-113.4v0c0,-62.62909 50.77091,-113.4 113.4,-113.4v0c62.62909,0 113.4,50.77091 113.4,113.4v0c0,62.62909 -50.77091,113.4 -113.4,113.4z" fill="none"/><path d="M126,234.36c-59.84558,0 -108.36,-48.51442 -108.36,-108.36v0c0,-59.84558 48.51442,-108.36 108.36,-108.36h0c59.84558,0 108.36,48.51442 108.36,108.36v0c0,59.84558 -48.51442,108.36 -108.36,108.36z" fill="none"/><path d="M126,240.66c-63.32497,0 -114.66,-51.33503 -114.66,-114.66v0c0,-63.32497 51.33503,-114.66 114.66,-114.66v0c63.32497,0 114.66,51.33503 114.66,114.66v0c0,63.32497 -51.33503,114.66 -114.66,114.66z" fill="none"/><path d="M126,235.62c-60.54145,0 -109.62,-49.07855 -109.62,-109.62v0c0,-60.54145 49.07855,-109.62 109.62,-109.62h0c60.54145,0 109.62,49.07855 109.62,109.62v0c0,60.54145 -49.07855,109.62 -109.62,109.62z" fill="none"/><path d="M126,241.92c-64.02085,0 -115.92,-51.89915 -115.92,-115.92v0c0,-64.02085 51.89915,-115.92 115.92,-115.92h0c64.02085,0 115.92,51.89915 115.92,115.92v0c0,64.02085 -51.89915,115.92 -115.92,115.92z" fill="none"/><path d="M126,236.88c-61.23733,0 -110.88,-49.64267 -110.88,-110.88v0c0,-61.23733 49.64267,-110.88 110.88,-110.88v0c61.23733,0 110.88,49.64267 110.88,110.88v0c0,61.23733 -49.64267,110.88 -110.88,110.88z" fill="none"/><path d="M126,243.18c-64.71673,0 -117.18,-52.46327 -117.18,-117.18v0c0,-64.71673 52.46327,-117.18 117.18,-117.18v0c64.71673,0 117.18,52.46327 117.18,117.18v0c0,64.71673 -52.46327,117.18 -117.18,117.18z" fill="none"/><path d="M126,238.14c-61.93321,0 -112.14,-50.20679 -112.14,-112.14v0c0,-61.93321 50.20679,-112.14 112.14,-112.14h0c61.93321,0 112.14,50.20679 112.14,112.14v0c0,61.93321 -50.20679,112.14 -112.14,112.14z" fill="none"/><path d="M126,244.44c-65.41261,0 -118.44,-53.02739 -118.44,-118.44v0c0,-65.41261 53.02739,-118.44 118.44,-118.44v0c65.41261,0 118.44,53.02739 118.44,118.44v0c0,65.41261 -53.02739,118.44 -118.44,118.44z" fill="none"/><path d="M126,239.4c-62.62909,0 -113.4,-50.77091 -113.4,-113.4v0c0,-62.62909 50.77091,-113.4 113.4,-113.4h0c62.62909,0 113.4,50.77091 113.4,113.4v0c0,62.62909 -50.77091,113.4 -113.4,113.4z" fill="none"/><path d="M126,245.7c-66.10848,0 -119.7,-53.59152 -119.7,-119.7v0c0,-66.10848 53.59152,-119.7 119.7,-119.7h0c66.10848,0 119.7,53.59152 119.7,119.7v0c0,66.10848 -53.59152,119.7 -119.7,119.7z" fill="none"/><path d="M126,240.66c-63.32497,0 -114.66,-51.33503 -114.66,-114.66v0c0,-63.32497 51.33503,-114.66 114.66,-114.66v0c63.32497,0 114.66,51.33503 114.66,114.66v0c0,63.32497 -51.33503,114.66 -114.66,114.66z" fill="none"/><path d="M126,249.48c-68.19612,0 -123.48,-55.28388 -123.48,-123.48v0c0,-68.19612 55.28388,-123.48 123.48,-123.48h0c68.19612,0 123.48,55.28388 123.48,123.48v0c0,68.19612 -55.28388,123.48 -123.48,123.48z" fill="none"/><path d="M126,244.44c-65.41261,0 -118.44,-53.02739 -118.44,-118.44v0c0,-65.41261 53.02739,-118.44 118.44,-118.44v0c65.41261,0 118.44,53.02739 118.44,118.44v0c0,65.41261 -53.02739,118.44 -118.44,118.44z" fill="none"/><path d="M126,252c-69.58788,0 -126,-56.41212 -126,-126v0c0,-69.58788 56.41212,-126 126,-126v0c69.58788,0 126,56.41212 126,126v0c0,69.58788 -56.41212,126 -126,126z" fill="none"/><path d="M126,246.96c-66.80436,0 -120.96,-54.15564 -120.96,-120.96v0c0,-66.80436 54.15564,-120.96 120.96,-120.96h0c66.80436,0 120.96,54.15564 120.96,120.96v0c0,66.80436 -54.15564,120.96 -120.96,120.96z" fill="none"/><path d="M126,252c-69.58788,0 -126,-56.41212 -126,-126v0c0,-69.58788 56.41212,-126 126,-126v0c69.58788,0 126,56.41212 126,126v0c0,69.58788 -56.41212,126 -126,126z" fill="none"/><path d="M126,241.92c-64.02085,0 -115.92,-51.89915 -115.92,-115.92v0c0,-64.02085 51.89915,-115.92 115.92,-115.92h0c64.02085,0 115.92,51.89915 115.92,115.92v0c0,64.02085 -51.89915,115.92 -115.92,115.92z" fill="none"/><path d="M126,252c-69.58788,0 -126,-56.41212 -126,-126v0c0,-69.58788 56.41212,-126 126,-126v0c69.58788,0 126,56.41212 126,126v0c0,69.58788 -56.41212,126 -126,126z" fill="none"/><path d="M126,236.88c-61.23733,0 -110.88,-49.64267 -110.88,-110.88v0c0,-61.23733 49.64267,-110.88 110.88,-110.88v0c61.23733,0 110.88,49.64267 110.88,110.88v0c0,61.23733 -49.64267,110.88 -110.88,110.88z" fill="none"/><path d="M126,252c-69.58788,0 -126,-56.41212 -126,-126v0c0,-69.58788 56.41212,-126 126,-126v0c69.58788,0 126,56.41212 126,126v0c0,69.58788 -56.41212,126 -126,126z" fill="none"/><path d="M126,231.84c-58.45382,0 -105.84,-47.38618 -105.84,-105.84v0c0,-58.45382 47.38618,-105.84 105.84,-105.84v0c58.45382,0 105.84,47.38618 105.84,105.84v0c0,58.45382 -47.38618,105.84 -105.84,105.84z" fill="none"/><path d="M126,252c-69.58788,0 -126,-56.41212 -126,-126v0c0,-69.58788 56.41212,-126 126,-126v0c69.58788,0 126,56.41212 126,126v0c0,69.58788 -56.41212,126 -126,126z" fill="none"/><path d="M126,226.8c-55.6703,0 -100.8,-45.1297 -100.8,-100.8v0c0,-55.6703 45.1297,-100.8 100.8,-100.8h0c55.6703,0 100.8,45.1297 100.8,100.8v0c0,55.6703 -45.1297,100.8 -100.8,100.8z" fill="none"/><path d="M126,252c-69.58788,0 -126,-56.41212 -126,-126v0c0,-69.58788 56.41212,-126 126,-126v0c69.58788,0 126,56.41212 126,126v0c0,69.58788 -56.41212,126 -126,126z" fill="none"/><path d="M126,221.76c-52.88679,0 -95.76,-42.87321 -95.76,-95.76v0c0,-52.88679 42.87321,-95.76 95.76,-95.76v0c52.88679,0 95.76,42.87321 95.76,95.76v0c0,52.88679 -42.87321,95.76 -95.76,95.76z" fill="none"/><path d="M126,252c-69.58788,0 -126,-56.41212 -126,-126v0c0,-69.58788 56.41212,-126 126,-126v0c69.58788,0 126,56.41212 126,126v0c0,69.58788 -56.41212,126 -126,126z" fill="none"/><path d="M126,216.72c-50.10327,0 -90.72,-40.61673 -90.72,-90.72v0c0,-50.10327 40.61673,-90.72 90.72,-90.72v0c50.10327,0 90.72,40.61673 90.72,90.72v0c0,50.10327 -40.61673,90.72 -90.72,90.72z" fill="none"/><path d="M126,252c-69.58788,0 -126,-56.41212 -126,-126v0c0,-69.58788 56.41212,-126 126,-126v0c69.58788,0 126,56.41212 126,126v0c0,69.58788 -56.41212,126 -126,126z" fill="none"/><path d="M126,211.68c-47.31976,0 -85.68,-38.36024 -85.68,-85.68v0c0,-47.31976 38.36024,-85.68 85.68,-85.68v0c47.31976,0 85.68,38.36024 85.68,85.68v0c0,47.31976 -38.36024,85.68 -85.68,85.68z" fill="none"/><path d="M126,252c-69.58788,0 -126,-56.41212 -126,-126v0c0,-69.58788 56.41212,-126 126,-126v0c69.58788,0 126,56.41212 126,126v0c0,69.58788 -56.41212,126 -126,126z" fill="none"/><path d="M126,206.64c-44.53624,0 -80.64,-36.10376 -80.64,-80.64v0c0,-44.53624 36.10376,-80.64 80.64,-80.64h0c44.53624,0 80.64,36.10376 80.64,80.64v0c0,44.53624 -36.10376,80.64 -80.64,80.64z" fill="none"/><path d="M126,252c-69.58788,0 -126,-56.41212 -126,-126v0c0,-69.58788 56.41212,-126 126,-126v0c69.58788,0 126,56.41212 126,126v0c0,69.58788 -56.41212,126 -126,126z" fill="none"/><path d="M126,201.6c-41.75273,0 -75.6,-33.84727 -75.6,-75.6v0c0,-41.75273 33.84727,-75.6 75.6,-75.6v0c41.75273,0 75.6,33.84727 75.6,75.6v0c0,41.75273 -33.84727,75.6 -75.6,75.6z" fill="none"/><path d="M126,252c-69.58788,0 -126,-56.41212 -126,-126v0c0,-69.58788 56.41212,-126 126,-126v0c69.58788,0 126,56.41212 126,126v0c0,69.58788 -56.41212,126 -126,126z" fill="none"/><path d="M126,206.64c-44.53624,0 -80.64,-36.10376 -80.64,-80.64v0c0,-44.53624 36.10376,-80.64 80.64,-80.64h0c44.53624,0 80.64,36.10376 80.64,80.64v0c0,44.53624 -36.10376,80.64 -80.64,80.64z" fill="none"/><path d="M126,252c-69.58788,0 -126,-56.41212 -126,-126v0c0,-69.58788 56.41212,-126 126,-126v0c69.58788,0 126,56.41212 126,126v0c0,69.58788 -56.41212,126 -126,126z" fill="none"/><path d="M126,211.68c-47.31976,0 -85.68,-38.36024 -85.68,-85.68v0c0,-47.31976 38.36024,-85.68 85.68,-85.68v0c47.31976,0 85.68,38.36024 85.68,85.68v0c0,47.31976 -38.36024,85.68 -85.68,85.68z" fill="none"/><path d="M126,252c-69.58788,0 -126,-56.41212 -126,-126v0c0,-69.58788 56.41212,-126 126,-126v0c69.58788,0 126,56.41212 126,126v0c0,69.58788 -56.41212,126 -126,126z" fill="none"/><path d="M126,216.72c-50.10327,0 -90.72,-40.61673 -90.72,-90.72v0c0,-50.10327 40.61673,-90.72 90.72,-90.72v0c50.10327,0 90.72,40.61673 90.72,90.72v0c0,50.10327 -40.61673,90.72 -90.72,90.72z" fill="none"/><path d="M126,252c-69.58788,0 -126,-56.41212 -126,-126v0c0,-69.58788 56.41212,-126 126,-126v0c69.58788,0 126,56.41212 126,126v0c0,69.58788 -56.41212,126 -126,126z" fill="none"/><path d="M126,221.76c-52.88679,0 -95.76,-42.87321 -95.76,-95.76v0c0,-52.88679 42.87321,-95.76 95.76,-95.76v0c52.88679,0 95.76,42.87321 95.76,95.76v0c0,52.88679 -42.87321,95.76 -95.76,95.76z" fill="none"/><path d="M126,252c-69.58788,0 -126,-56.41212 -126,-126v0c0,-69.58788 56.41212,-126 126,-126v0c69.58788,0 126,56.41212 126,126v0c0,69.58788 -56.41212,126 -126,126z" fill="none"/><path d="M126,226.8c-55.6703,0 -100.8,-45.1297 -100.8,-100.8v0c0,-55.6703 45.1297,-100.8 100.8,-100.8h0c55.6703,0 100.8,45.1297 100.8,100.8v0c0,55.6703 -45.1297,100.8 -100.8,100.8z" fill="none"/><path d="M126,252c-69.58788,0 -126,-56.41212 -126,-126v0c0,-69.58788 56.41212,-126 126,-126v0c69.58788,0 126,56.41212 126,126v0c0,69.58788 -56.41212,126 -126,126z" fill="none"/><path d="M126,231.84c-58.45382,0 -105.84,-47.38618 -105.84,-105.84v0c0,-58.45382 47.38618,-105.84 105.84,-105.84v0c58.45382,0 105.84,47.38618 105.84,105.84v0c0,58.45382 -47.38618,105.84 -105.84,105.84z" fill="none"/><path d="M126,252c-69.58788,0 -126,-56.41212 -126,-126v0c0,-69.58788 56.41212,-126 126,-126v0c69.58788,0 126,56.41212 126,126v0c0,69.58788 -56.41212,126 -126,126z" fill="none"/><path d="M126,236.88c-61.23733,0 -110.88,-49.64267 -110.88,-110.88v0c0,-61.23733 49.64267,-110.88 110.88,-110.88v0c61.23733,0 110.88,49.64267 110.88,110.88v0c0,61.23733 -49.64267,110.88 -110.88,110.88z" fill="none"/><path d="M126,252c-69.58788,0 -126,-56.41212 -126,-126v0c0,-69.58788 56.41212,-126 126,-126v0c69.58788,0 126,56.41212 126,126v0c0,69.58788 -56.41212,126 -126,126z" fill="none"/><path d="M126,241.92c-64.02085,0 -115.92,-51.89915 -115.92,-115.92v0c0,-64.02085 51.89915,-115.92 115.92,-115.92h0c64.02085,0 115.92,51.89915 115.92,115.92v0c0,64.02085 -51.89915,115.92 -115.92,115.92z" fill="none"/><path d="M126,252c-69.58788,0 -126,-56.41212 -126,-126v0c0,-69.58788 56.41212,-126 126,-126v0c69.58788,0 126,56.41212 126,126v0c0,69.58788 -56.41212,126 -126,126z" fill="none"/><path d="M126,246.96c-66.80436,0 -120.96,-54.15564 -120.96,-120.96v0c0,-66.80436 54.15564,-120.96 120.96,-120.96h0c66.80436,0 120.96,54.15564 120.96,120.96v0c0,66.80436 -54.15564,120.96 -120.96,120.96z" fill="none"/><path d="M126,252c-69.58788,0 -126,-56.41212 -126,-126v0c0,-69.58788 56.41212,-126 126,-126v0c69.58788,0 126,56.41212 126,126v0c0,69.58788 -56.41212,126 -126,126z" fill="none"/><path d="M126,246.96c-66.80436,0 -120.96,-54.15564 -120.96,-120.96v0c0,-66.80436 54.15564,-120.96 120.96,-120.96h0c66.80436,0 120.96,54.15564 120.96,120.96v0c0,66.80436 -54.15564,120.96 -120.96,120.96z" fill="none"/><path d="" fill="none"/><path d="M126,252c-69.58788,0 -126,-56.41212 -126,-126v0c0,-69.58788 56.41212,-126 126,-126v0c69.58788,0 126,56.41212 126,126v0c0,69.58788 -56.41212,126 -126,126z" fill="none"/><path d="M126,246.96c-66.80436,0 -120.96,-54.15564 -120.96,-120.96v0c0,-66.80436 54.15564,-120.96 120.96,-120.96h0c66.80436,0 120.96,54.15564 120.96,120.96v0c0,66.80436 -54.15564,120.96 -120.96,120.96z" fill="none"/></g></g></svg>
