<?xml version="1.0"?>
<svg xmlns="http://www.w3.org/2000/svg" xmlns:xlink="http://www.w3.org/1999/xlink" version="1.1" viewBox="0 0 252 252" width="512px" height="512px"><g fill="none" fill-rule="nonzero" stroke="none" stroke-width="1" stroke-linecap="butt" stroke-linejoin="miter" stroke-miterlimit="10" stroke-dasharray="" stroke-dashoffset="0" font-family="none" font-weight="none" font-size="none" text-anchor="none" style="mix-blend-mode: normal"><path d="M0,252v-252h252v252z" fill="none"/><path d="M0,126c0,-69.58788 56.41212,-126 126,-126c69.58788,0 126,56.41212 126,126c0,69.58788 -56.41212,126 -126,126c-69.58788,0 -126,-56.41212 -126,-126zM126,246.96c66.80436,0 120.96,-54.15564 120.96,-120.96c0,-66.80436 -54.15564,-120.96 -120.96,-120.96c-66.80436,0 -120.96,54.15564 -120.96,120.96c0,66.80436 54.15564,120.96 120.96,120.96z" fill="#2196f3"/><g fill="#2196f3"><g id="surface1"><path d="M63.98438,59.85c0,0 -4.13437,7.25865 -4.13437,19.54432c0,8.1513 1.85577,12.45011 3.19474,14.65824c-9.39631,9.77216 -15.22202,23.02095 -15.22202,40.02827c0,43.55189 27.60165,58.06918 78.17727,58.06918c50.57562,0 78.17727,-14.51729 78.17727,-58.06918c0,-17.59458 -5.49684,-30.81989 -14.47031,-40.40412c2.23162,-6.67138 4.74514,-19.26243 -1.50341,-33.8267c-18.65167,0 -34.20256,14.32937 -34.76634,14.84616c-8.71508,-1.90275 -17.97044,-2.81889 -27.43722,-2.81889c-9.65471,0 -19.12148,1.17454 -28.00099,3.38267c-12.49709,-12.37964 -27.57816,-15.40994 -34.01463,-15.40994zM154.18892,122.61733c5.07401,-0.04698 9.77216,0.37585 13.90653,1.69134c11.01717,3.50012 18.04091,13.62464 18.04091,24.99418c0,31.47763 -16.88986,36.83352 -60.13636,36.83352c-32.13537,0 -58.2571,-5.66127 -58.2571,-35.70597c0,-11.46349 6.22505,-17.94695 10.71179,-21.98736c9.86612,-8.87951 25.4405,-4.51023 47.54531,-4.51023c10.05405,0 19.70876,-1.22152 28.18892,-1.31548zM92.925,138.02727c-4.98004,0 -9.02045,5.37938 -9.02045,12.02727c0,6.64789 4.04041,12.02727 9.02045,12.02727c4.98004,0 9.02045,-5.37938 9.02045,-12.02727c0,-6.64789 -4.04041,-12.02727 -9.02045,-12.02727zM159.075,138.02727c-4.98004,0 -9.02045,5.37938 -9.02045,12.02727c0,6.64789 4.04041,12.02727 9.02045,12.02727c4.98004,0 9.02045,-5.37938 9.02045,-12.02727c0,-6.64789 -4.04041,-12.02727 -9.02045,-12.02727zM91.98537,143.10128c1.40945,0 2.44304,1.19803 2.44304,2.63097c0,1.43294 -1.03359,2.63097 -2.44304,2.63097c-1.40945,0 -2.63097,-1.19803 -2.63097,-2.63097c0,-1.43294 1.22152,-2.63097 2.63097,-2.63097zM158.13537,143.10128c1.40945,0 2.44304,1.19803 2.44304,2.63097c0,1.43294 -1.03359,2.63097 -2.44304,2.63097c-1.40945,0 -2.63097,-1.19803 -2.63097,-2.63097c0,-1.43294 1.22152,-2.63097 2.63097,-2.63097z"/></g></g><path d="M126,252c-69.58788,0 -126,-56.41212 -126,-126v0c0,-69.58788 56.41212,-126 126,-126v0c69.58788,0 126,56.41212 126,126v0c0,69.58788 -56.41212,126 -126,126z" fill="none"/><path d="M126,246.96c-66.80436,0 -120.96,-54.15564 -120.96,-120.96v0c0,-66.80436 54.15564,-120.96 120.96,-120.96h0c66.80436,0 120.96,54.15564 120.96,120.96v0c0,66.80436 -54.15564,120.96 -120.96,120.96z" fill="none"/><path d="M126,252c-69.58788,0 -126,-56.41212 -126,-126v0c0,-69.58788 56.41212,-126 126,-126v0c69.58788,0 126,56.41212 126,126v0c0,69.58788 -56.41212,126 -126,126z" fill="none"/><path d="M126,246.96c-66.80436,0 -120.96,-54.15564 -120.96,-120.96v0c0,-66.80436 54.15564,-120.96 120.96,-120.96h0c66.80436,0 120.96,54.15564 120.96,120.96v0c0,66.80436 -54.15564,120.96 -120.96,120.96z" fill="none"/></g></svg>
