<?xml version="1.0"?>
<svg xmlns="http://www.w3.org/2000/svg" xmlns:xlink="http://www.w3.org/1999/xlink" version="1.1" viewBox="0 0 252 252" width="512px" height="512px"><g fill="none" fill-rule="nonzero" stroke="none" stroke-width="1" stroke-linecap="butt" stroke-linejoin="miter" stroke-miterlimit="10" stroke-dasharray="" stroke-dashoffset="0" font-family="none" font-weight="none" font-size="none" text-anchor="none" style="mix-blend-mode: normal"><path d="M0,252v-252h252v252z" fill="none"/><path d="M0,126c0,-69.58788 56.41212,-126 126,-126c69.58788,0 126,56.41212 126,126c0,69.58788 -56.41212,126 -126,126c-69.58788,0 -126,-56.41212 -126,-126zM126,246.96c66.80436,0 120.96,-54.15564 120.96,-120.96c0,-66.80436 -54.15564,-120.96 -120.96,-120.96c-66.80436,0 -120.96,54.15564 -120.96,120.96c0,66.80436 54.15564,120.96 120.96,120.96z" fill="#2196f3"/><g fill="#2196f3"><g id="surface1"><path d="M185.88749,51.93586c-2.05645,0.09565 -3.99334,0.69345 -5.71502,1.36299h-0.02391c-1.7456,0.69345 -10.04312,4.18464 -22.64486,9.46923c-12.60173,5.30851 -28.95768,12.19523 -45.19406,19.03411c-32.42494,13.65387 -64.2999,27.09252 -64.2999,27.09252l0.3826,-0.14347c0,0 -2.19992,0.71736 -4.49549,2.29557c-1.1717,0.76519 -2.46296,1.81733 -3.58683,3.46727c-1.12387,1.64994 -2.03254,4.18464 -1.69777,6.79106c0.54998,4.42376 3.41945,7.07801 5.47589,8.53665c2.08036,1.48256 4.06508,2.17601 4.06508,2.17601h0.04782l29.89025,10.06703c1.33908,4.3042 9.11055,29.84243 10.9757,35.72483c1.09996,3.51509 2.17601,5.71502 3.51509,7.38887c0.64563,0.86084 1.41082,1.57821 2.31948,2.1521c0.35868,0.21521 0.74128,0.3826 1.12387,0.52607c0.11956,0.07174 0.23913,0.09565 0.3826,0.11956l-0.31086,-0.07173c0.09565,0.02391 0.16739,0.09565 0.23912,0.11956c0.23913,0.07174 0.40651,0.09565 0.71737,0.14347c4.73461,1.43473 8.53665,-1.50646 8.53665,-1.50646l0.21521,-0.16739l17.64721,-16.069l29.57939,22.69268l0.66954,0.28695c6.16935,2.70208 12.41043,1.19561 15.71031,-1.45864c3.3238,-2.67817 4.61506,-6.09761 4.61506,-6.09761l0.21521,-0.54998l22.86006,-117.09804c0.64563,-2.89337 0.81301,-5.59545 0.09565,-8.2258c-0.71737,-2.63034 -2.55861,-5.0933 -4.78244,-6.40847c-2.24775,-1.33908 -4.47158,-1.74559 -6.52803,-1.64994zM185.26577,64.48976c-0.02391,0.3826 0.04783,0.33477 -0.11956,1.07605v0.07174l-22.64486,115.87853c-0.09565,0.16738 -0.26304,0.52607 -0.71736,0.88475c-0.47824,0.3826 -0.86084,0.62171 -2.84555,-0.16739l-36.17916,-27.73815l-21.85575,19.91886l4.59114,-29.31635c0,0 56.67192,-52.82205 59.11096,-55.09371c2.43905,-2.27166 1.62603,-2.7499 1.62603,-2.7499c0.16739,-2.77382 -3.68248,-0.81301 -3.68248,-0.81301l-74.53433,46.17445l-0.02391,-0.11956l-35.72482,-12.02784v-0.02391c-0.02392,0 -0.07174,-0.02391 -0.09565,-0.02391c0.02391,0 0.1913,-0.07174 0.1913,-0.07174l0.1913,-0.09565l0.1913,-0.07174c0,0 31.89887,-13.43865 64.32382,-27.09252c16.23639,-6.83889 32.59233,-13.7256 45.17014,-19.03411c12.57782,-5.28459 21.87966,-9.15837 22.40574,-9.37358c0.50215,-0.1913 0.26303,-0.1913 0.62171,-0.1913z"/></g></g><path d="M126,252c-69.58788,0 -126,-56.41212 -126,-126v0c0,-69.58788 56.41212,-126 126,-126v0c69.58788,0 126,56.41212 126,126v0c0,69.58788 -56.41212,126 -126,126z" fill="none"/><path d="M126,246.96c-66.80436,0 -120.96,-54.15564 -120.96,-120.96v0c0,-66.80436 54.15564,-120.96 120.96,-120.96h0c66.80436,0 120.96,54.15564 120.96,120.96v0c0,66.80436 -54.15564,120.96 -120.96,120.96z" fill="none"/><path d="M126,252c-69.58788,0 -126,-56.41212 -126,-126v0c0,-69.58788 56.41212,-126 126,-126v0c69.58788,0 126,56.41212 126,126v0c0,69.58788 -56.41212,126 -126,126z" fill="none"/><path d="M126,246.96c-66.80436,0 -120.96,-54.15564 -120.96,-120.96v0c0,-66.80436 54.15564,-120.96 120.96,-120.96h0c66.80436,0 120.96,54.15564 120.96,120.96v0c0,66.80436 -54.15564,120.96 -120.96,120.96z" fill="none"/></g></svg>
