<?xml version="1.0"?>
<svg xmlns="http://www.w3.org/2000/svg" xmlns:xlink="http://www.w3.org/1999/xlink" version="1.1" viewBox="0 0 252 252" width="512px" height="512px"><g fill="none" fill-rule="nonzero" stroke="none" stroke-width="1" stroke-linecap="butt" stroke-linejoin="miter" stroke-miterlimit="10" stroke-dasharray="" stroke-dashoffset="0" font-family="none" font-weight="none" font-size="none" text-anchor="none" style="mix-blend-mode: normal"><path d="M0,252v-252h252v252z" fill="none"/><path d="M0,126c0,-69.58788 56.41212,-126 126,-126c69.58788,0 126,56.41212 126,126c0,69.58788 -56.41212,126 -126,126c-69.58788,0 -126,-56.41212 -126,-126zM126,246.96c66.80436,0 120.96,-54.15564 120.96,-120.96c0,-66.80436 -54.15564,-120.96 -120.96,-120.96c-66.80436,0 -120.96,54.15564 -120.96,120.96c0,66.80436 54.15564,120.96 120.96,120.96z" fill="#2196f3"/><g fill="#03a9f4"><g id="surface1"><path d="M197.03284,79.68701c-5.22591,2.31235 -10.83721,3.85391 -16.75683,4.57845c6.01211,-3.57643 10.65223,-9.28023 12.82583,-16.01688c-5.64213,3.31437 -11.88547,5.73463 -18.51421,7.01413c-5.30299,-5.62672 -12.87208,-9.11066 -21.2582,-9.11066c-16.09395,0 -29.15102,12.93374 -29.15102,28.88896c0,2.25069 0.26207,4.45513 0.75537,6.58249c-24.21801,-1.20242 -45.70745,-12.71792 -60.07485,-30.19929c-2.52817,4.27014 -3.94641,9.26481 -3.94641,14.55239c0,10.02018 5.13342,18.85336 12.96457,24.04844c-4.77886,-0.13874 -9.28023,-1.4799 -13.21122,-3.60727c0,0.0925 0,0.21582 0,0.33915c0,14.01284 10.05101,25.6825 23.37015,28.34941c-2.43568,0.66287 -5.01009,1.03285 -7.66159,1.03285c-1.88071,0 -3.71517,-0.21582 -5.48798,-0.53955c3.69976,11.45384 14.4599,19.82455 27.22407,20.0712c-9.98935,7.73866 -22.55312,12.37878 -36.2114,12.37878c-2.3586,0 -4.67095,-0.13874 -6.95247,-0.41622c12.91833,8.1703 28.2415,12.96457 44.69001,12.96457c53.61568,0 82.95169,-44.02714 82.95169,-82.22716c0,-1.24867 -0.04625,-2.49734 -0.10791,-3.71518c5.71921,-4.05432 10.65223,-9.14149 14.55239,-14.96861"/></g></g><path d="M126,252c-69.58788,0 -126,-56.41212 -126,-126v0c0,-69.58788 56.41212,-126 126,-126v0c69.58788,0 126,56.41212 126,126v0c0,69.58788 -56.41212,126 -126,126z" fill="none"/><path d="M126,246.96c-66.80436,0 -120.96,-54.15564 -120.96,-120.96v0c0,-66.80436 54.15564,-120.96 120.96,-120.96h0c66.80436,0 120.96,54.15564 120.96,120.96v0c0,66.80436 -54.15564,120.96 -120.96,120.96z" fill="none"/><path d="M126,252c-69.58788,0 -126,-56.41212 -126,-126v0c0,-69.58788 56.41212,-126 126,-126v0c69.58788,0 126,56.41212 126,126v0c0,69.58788 -56.41212,126 -126,126z" fill="none"/><path d="M126,246.96c-66.80436,0 -120.96,-54.15564 -120.96,-120.96v0c0,-66.80436 54.15564,-120.96 120.96,-120.96h0c66.80436,0 120.96,54.15564 120.96,120.96v0c0,66.80436 -54.15564,120.96 -120.96,120.96z" fill="none"/></g></svg>
